# xmcd
#
# Track frame offsets: 
#        150
#        16983
#        31403
#        42910
#        67060
#        78493
#        90520
#        109680
#        125455
#        145135
#        158295
#        169600
#        181453
#        210543
#        226140
#        238075
#        252413
#        263280
#        277400
#        303125
#
# Disc length: 4232 seconds
#
# Revision: 2
# Processed by: cddbd v1.4PL0 Copyright (c) Steve Scherf et al.
# Submitted via: ExactAudioCopy v0.90b4
#
DISCID=05108614
DTITLE=Brainbox - To You
DYEAR=1972
DGENRE=
TTITLE0=Virgin
TTITLE1=Amsterdam, The First Days
TTITLE2=Sinner's Prayer
TTITLE3=Dark Rose
TTITLE4=Cruel Train
TTITLE5=Down Man
TTITLE6=Woman's Gone
TTITLE7=To You
TTITLE8=Summertime
TTITLE9=Doomsday Train
TTITLE10=Between Alpha And Omega
TTITLE11=Baby, What You Do To Me
TTITLE12=Scarborough Fair
TTITLE13=The Flight
TTITLE14=So Helpless
TTITLE15=The Smile
TTITLE16=Reason To Believe
TTITLE17=Sea Of Delight
TTITLE18=Mobilea
TTITLE19=Good Morning
EXTD=
EXTT0=
EXTT1=
EXTT2=
EXTT3=
EXTT4=
EXTT5=
EXTT6=
EXTT7=
EXTT8=
EXTT9=
EXTT10=
EXTT11=
EXTT12=
EXTT13=
EXTT14=
EXTT15=
EXTT16=
EXTT17=
EXTT18=
EXTT19=
PLAYORDER=
